# AST/ASF file generated using VICON BodyLanguage
# -----------------------------------------------
:version 1.10
:name VICON
:units
  mass 1.0
  length 0.45
  angle deg
:documentation
   .ast/.asf automatically generated from VICON data using
   VICON BodyBuilder and BodyLanguage model FoxedUp or BRILLIANT.MOD
:root
   order TX TY TZ RX RY RZ
   axis XYZ
   position 0 0 0  
   orientation 0 0 0 
:bonedata
  begin
     id 1 
     name lhipjoint
     direction 0.61886 -0.69539 0.365302 
     length 2.20474 
     axis 0 0 0  XYZ
  end
  begin
     id 2 
     name lfemur
     direction 0.34202 -0.939693 0  
     length 6.65149  
     axis 0 0 20  XYZ
    dof rx ry rz
    limits (-160.0 20.0)
           (-70.0 70.0)
           (-60.0 70.0)
  end
  begin
     id 3 
     name ltibia
     direction 0.34202 -0.939693 0   
     length 6.35814   
     axis 0 0 20   XYZ
    dof rx
    limits (-10.0 170.0)
  end
  begin
     id 4 
     name lfoot
     direction 0.101224 -0.278109 0.955201   
     length 2.18766   
     axis -90 7.62852e-016 20   XYZ
    dof rx rz
    limits (-45.0 90.0)
           (-70.0 20.0)
  end
  begin
     id 5 
     name ltoes
     direction 1.53524e-011 -4.21877e-011 1   
     length 1.09206   
     axis -90 7.62852e-016 20   XYZ
    dof rx
    limits (-90.0 20.0)
  end
  begin
     id 6 
     name rhipjoint
     direction -0.600207 -0.708087 0.371972   
     length 2.1652  
     axis 0 0 0  XYZ 
  end
  begin
     id 7 
     name rfemur
     direction -0.34202 -0.939693 0   
     length 6.54691   
     axis 0 0 -20   XYZ
    dof rx ry rz
    limits (-160.0 20.0)
           (-70.0 70.0)
           (-70.0 60.0)
  end
  begin
     id 8 
     name rtibia
     direction -0.34202 -0.939693 0   
     length 6.37474   
     axis 0 0 -20   XYZ
    dof rx
    limits (-10.0 170.0)
 end
 begin
     id 9 
     name rfoot
     direction -0.111266 -0.3057 0.945604   
     length 2.00903  
     axis -90 -7.62852e-016 -20   XYZ
    dof rx rz
    limits (-45.0 90.0)
           (-20.0 70.0)
  end
  begin
     id 10 
     name rtoes
     direction -1.5362e-011 -4.21913e-011 1   
     length 1.00221   
     axis -90 -7.62852e-016 -20   XYZ
    dof rx
    limits (-90.0 20.0)
  end
  begin
     id 11 
     name lowerback
     direction -0.0224561 0.999731 -0.00577314   
     length 2.10409   
     axis 0 0 0   XYZ
    dof rx ry rz
    limits (-20.0 45.0)
           (-30.0 30.0)
           (-30.0 30.0)
  end
  begin
     id 12 
     name upperback
     direction 0.0213126 0.999185 -0.0342817   
     length 2.09783   
     axis 0 0 0   XYZ
    dof rx ry rz
    limits (-20.0 45.0)
           (-30.0 30.0)
           (-30.0 30.0)
  end
  begin
     id 13 
     name thorax
     direction 0.0312356 0.999036 -0.0308451   
     length 2.09788   
     axis 0 0 0   XYZ
    dof rx ry rz
    limits (-20.0 45.0)
           (-30.0 30.0)
           (-30.0 30.0)
  end
  begin
     id 14 
     name lowerneck
     direction -0.0114419 0.996481 0.0830329   
     length 1.38575   
     axis 0 0 0   XYZ
    dof rx ry rz
    limits (-20.0 45.0)
           (-30.0 30.0)
           (-30.0 30.0)
  end
  begin
     id 15 
     name upperneck
     direction -0.0075675 0.996187 -0.0869092   
     length 1.39401   
     axis 0 0 0   XYZ
    dof rx ry rz
    limits (-20.0 45.0)
           (-30.0 30.0)
           (-30.0 30.0)
  end
  begin
     id 16
     name head
     direction -0.00222073 0.999264 -0.0382974  
     length 1.3964  
     axis 0 0 0   XYZ
    dof rx ry rz
    limits (-20.0 45.0)
           (-30.0 30.0)
           (-30.0 30.0)
  end
  begin
     id 17 
     name lclavicle
     direction 0.965962 0.222138 0.132556  
     length 2.81514  
     axis 0 0 0   XYZ
    dof ry rz
    limits (-20.0 10.0)
           (0.0 20.0)
  end
  begin
     id 18 
     name lhumerus
     direction 1 -4.48972e-011 7.03471e-018   
     length 4.47366   
     axis 180 -30 -90   XYZ
    dof rx ry rz
    limits (-60.0 90.0)
           (-90.0 90.0)
           (-90.0 90.0)
  end
  begin
     id 19
     name lradius
     direction 1 -4.48951e-011 -6.22192e-028   
     length 3.19948   
     axis 180 -30 -90   XYZ
    dof rx
    limits (-10.0 170.0)
  end
  begin
     id 20
     name lwrist
     direction 1 -4.48967e-011 -1.24264e-027   
     length 1.59974   
     axis 1.40095e-015 90 90   XYZ
    dof ry
    limits (-180.0 0.0)
 end
  begin
     id 21 
     name lhand
     direction 1 -4.4897e-011 -2.48528e-027   
     length 0.492667   
     axis 1.58582e-015 90 90   XYZ
    dof rx rz
    limits (-90.0 90.0)
           (-45.0 45.0)
  end
  begin
     id 22 
     name lfingers
     direction 1 -4.48996e-011 -4.97056e-027   
     length 0.397201   
     axis 3.17164e-015 90 90   XYZ
    dof rx
    limits (0.0 90.0)
  end
  begin
     id 23
     name lthumb
     direction 0.707107 -6.34981e-011 0.707107   
     length 0.570303   
     axis -90 45 2.85299e-015   XYZ
    dof rx rz
    limits (-45.0 45.0)
           (-45.0 45.0)
  end
  begin
     id 24 
     name rclavicle
     direction -0.961164 0.229034 0.153972   
     length 3.09348  
     axis 0 0 0   XYZ 
    dof ry rz
    limits (-10.0 20.0)
           (-20.0 0.0)
  end
  begin
     id 25 
     name rhumerus
     direction -1 -4.48971e-011 -9.06263e-028  
     length 4.3269   
     axis 180 30 90   XYZ
    dof rx ry rz
    limits (-90.0 60.0)
           (-90.0 90.0)
           (-90.0 90.0)
  end
  begin
     id 26 
     name rradius
     direction -1 -4.48953e-011 1.44659e-027   
     length 3.1896   
     axis 180 30 90   XYZ
    dof rx
    limits (-10.0 170.0)
  end
  begin
     id 27 
     name rwrist
     direction -1 -4.48988e-011 -1.24264e-027   
     length 1.5948   
     axis 1.40095e-015 -90 -90   XYZ
    dof ry
    limits (-180.0 0.0)
  end
  begin
     id 28
     name rhand
     direction -1 -4.49033e-011 -2.48528e-027   
     length 0.464496   
     axis 1.58582e-015 -90 -90   XYZ
    dof rx rz
    limits (-90.0 90.0)
           (-45.0 45.0)
  end
  begin
     id 29
     name rfingers
     direction -1 -4.48905e-011 -4.97056e-027   
     length 0.374489   
     axis 3.17164e-015 -90 -90   XYZ
    dof rx
    limits (0.0 90.0)
  end
  begin
     id 30
     name rthumb
     direction -0.707107 -6.34909e-011 0.707107   
     length 0.537693   
     axis -90 -45 -2.85299e-015   XYZ
    dof rx rz
    limits (-45.0 45.0)
           (-45.0 45.0)
  end
:hierarchy
  begin
    root lhipjoint rhipjoint lowerback
    lhipjoint lfemur
    lfemur ltibia
    ltibia lfoot
    lfoot ltoes
    rhipjoint rfemur
    rfemur rtibia
    rtibia rfoot
    rfoot rtoes
    lowerback upperback
    upperback thorax
    thorax lowerneck lclavicle rclavicle
    lowerneck upperneck
    upperneck head
    lclavicle lhumerus
    lhumerus lradius
    lradius lwrist
    lwrist lhand lthumb
    lhand lfingers
    rclavicle rhumerus
    rhumerus rradius
    rradius rwrist
    rwrist rhand rthumb
    rhand rfingers
  end

#!OML:ASF G:\acrobat\cartwheel_test 2\Patient 1\Session 2\acrobat4.ASF
:FULLY-SPECIFIED
:DEGREES
63
root 8.0117 14.6551 2.50502 -7.87522 -2.05099 2.4702
lowerback -1.88572 -0.0913505 -3.60375
upperback 3.54361 -0.0362447 1.58052
thorax 4.73093 -0.181849 3.66056
lowerneck -11.6333 -1.77269 -1.28823
upperneck 11.0791 -2.07757 -0.712423
head 5.24883 -1.12062 -0.17647
rclavicle -7.14382e-015 1.03368e-014
rhumerus 48.1008 -4.95006 -71.9718
rradius 16.0759
rwrist 40.137
rhand -20.9342 -20.2197
rfingers 7.12502
rthumb 5.43791 -50.1299
lclavicle -7.14382e-015 1.03368e-014
lhumerus 41.8612 -13.3048 40.7962
lradius 28.8683
lwrist 8.29237
lhand -26.2334 1.02221
lfingers 7.12502
lthumb 0.320303 31.0017
rfemur -10.7501 -3.61165 17.7548
rtibia 49.6296
rfoot -22.1725 -17.7086
rtoes -16.5689
lfemur -11.1196 7.39648 -17.0397
ltibia 49.8117
lfoot -26.26 7.6245
ltoes -14.6877
64
root 8.01996 14.6544 2.50574 -7.81791 -2.06171 2.45545
lowerback -1.95374 -0.0925987 -3.52472
upperback 3.5719 -0.0383753 1.56775
thorax 4.7989 -0.181698 3.6029
lowerneck -11.6523 -1.78859 -1.28843
upperneck 11.0344 -2.08883 -0.788024
head 5.23733 -1.13124 -0.200817
rclavicle -1.87479e-014 1.03368e-014
rhumerus 47.9921 -4.2167 -70.8776
rradius 16.3446
rwrist 38.8776
rhand -20.6042 -20.9325
rfingers 7.12502
rthumb 5.75654 -50.8343
lclavicle -1.87479e-014 1.03368e-014
lhumerus 41.8387 -13.2104 40.7954
lradius 28.9148
lwrist 8.27167
lhand -26.2584 1.17048
lfingers 7.12502
lthumb 0.296196 31.15
rfemur -10.8902 -3.49407 17.7229
rtibia 49.6296
rfoot -22.1163 -17.6627
rtoes -16.4928
lfemur -11.2148 7.26985 -17.1058
ltibia 49.8694
lfoot -26.3058 7.75852
ltoes -14.6603
65
root 8.02797 14.654 2.5062 -7.71222 -2.07117 2.3888
lowerback -2.04854 -0.0877781 -3.39721
upperback 3.56308 -0.0344683 1.56498
thorax 4.84242 -0.175723 3.52856
lowerneck -11.6121 -1.79733 -1.27493
upperneck 10.9704 -2.09738 -0.838434
head 5.20998 -1.13803 -0.218575
rclavicle -1.27843e-014 1.59028e-015
rhumerus 48.0248 -4.30362 -70.9306
rradius 16.332
rwrist 38.9325
rhand -20.6625 -20.9131
rfingers 7.12502
rthumb 5.70023 -50.8164
lclavicle -1.27843e-014 1.59028e-015
lhumerus 41.8431 -13.1871 40.7521
lradius 28.9377
lwrist 8.37768
lhand -26.2873 1.13894
lfingers 7.12502
lthumb 0.268242 31.1185
rfemur -10.9838 -3.50444 17.7776
rtibia 49.6483
rfoot -22.3444 -17.6363
rtoes -16.3029
lfemur -11.355 7.15924 -17.1165
ltibia 49.9201
lfoot -26.294 7.91036
ltoes -14.6862
66
root 8.03402 14.6524 2.50456 -7.65771 -2.07769 2.30277
lowerback -2.05062 -0.0604993 -3.2961
upperback 3.56324 -0.00289464 1.57732
thorax 4.84039 -0.156451 3.4863
lowerneck -11.665 -1.80338 -1.26823
upperneck 10.98 -2.10478 -0.84489
head 5.22168 -1.1419 -0.222851
rclavicle 3.35449e-015 -1.82882e-014
rhumerus 48.1509 -4.73272 -71.339
rradius 16.1965
rwrist 39.5757
rhand -20.5527 -20.5497
rfingers 7.12502
rthumb 5.80619 -50.4502
lclavicle 3.35449e-015 -1.82882e-014
lhumerus 41.9421 -13.162 40.8036
lradius 28.8496
lwrist 8.40658
lhand -26.3527 0.830627
lfingers 7.12502
lthumb 0.205102 30.8103
rfemur -10.9898 -3.50221 17.8857
rtibia 49.6476
rfoot -22.4664 -17.7099
rtoes -16.2165
lfemur -11.4382 7.07672 -17.0784
ltibia 49.9574
lfoot -26.2817 8.01372
ltoes -14.7605
67
root 8.03826 14.6529 2.50406 -7.69194 -2.08609 2.31923
lowerback -1.94932 -0.0393236 -3.32794
upperback 3.57088 0.0244751 1.5636
thorax 4.78839 -0.142772 3.49119
lowerneck -11.8288 -1.79608 -1.2441
upperneck 11.1474 -2.09323 -0.859198
head 5.30087 -1.1372 -0.233088
rclavicle -1.50082e-014 -1.27222e-014
rhumerus 47.9564 -4.15664 -70.5421
rradius 16.3988
rwrist 38.2487
rhand -20.3339 -20.6911
rfingers 7.12502
rthumb 6.01749 -50.5857
lclavicle -1.50082e-014 -1.27222e-014
lhumerus 41.9921 -13.1667 40.7598
lradius 28.7901
lwrist 8.3899
lhand -26.3792 0.69061
lfingers 7.12502
lthumb 0.179477 30.6703
rfemur -10.9892 -3.35871 17.853
rtibia 49.6029
rfoot -22.6535 -17.7045
rtoes -15.4722
lfemur -11.3999 6.9912 -17.1342
ltibia 49.9717
lfoot -26.2901 8.0856
ltoes -14.6926
68
root 8.0421 14.6554 2.50406 -7.67158 -2.09376 2.41122
lowerback -1.92695 -0.0344393 -3.41744
upperback 3.55564 0.03656 1.50589
thorax 4.75895 -0.137994 3.48206
lowerneck -11.9628 -1.78429 -1.1281
upperneck 11.3521 -2.08244 -0.945377
head 5.38503 -1.13421 -0.280706
rclavicle -6.08778e-015 7.15625e-015
rhumerus 47.7764 -3.70322 -69.9843
rradius 16.6016
rwrist 37.3547
rhand -20.2099 -21.2753
rfingers 7.12502
rthumb 6.13719 -51.1664
lclavicle -6.08778e-015 7.15625e-015
lhumerus 41.9877 -13.2427 40.5173
lradius 28.8327
lwrist 8.48203
lhand -26.2924 0.874514
lfingers 7.12502
lthumb 0.263323 30.8541
rfemur -11.0879 -3.21432 17.7226
rtibia 49.5386
rfoot -23.025 -17.6659
rtoes -14.4907
lfemur -11.43 6.90893 -17.2842
ltibia 49.9822
lfoot -26.2764 8.21162
ltoes -14.6086
69
root 8.04685 14.6567 2.5016 -7.59039 -2.12681 2.42329
lowerback -1.95716 -0.0475206 -3.44023
upperback 3.5278 0.0212026 1.49615
thorax 4.74844 -0.145599 3.48382
lowerneck -11.9591 -1.75262 -1.03201
upperneck 11.4034 -2.04213 -1.05003
head 5.39826 -1.11814 -0.326088
rclavicle 1.09207e-014 3.97569e-015
rhumerus 47.9977 -4.38388 -70.9707
rradius 16.27
rwrist 38.5682
rhand -21.0713 -20.7289
rfingers 7.12502
rthumb 5.30547 -50.6424
lclavicle 1.09207e-014 3.97569e-015
lhumerus 41.8972 -13.1792 40.4865
lradius 28.8421
lwrist 8.392
lhand -26.2246 1.11481
lfingers 7.12502
lthumb 0.328829 31.0943
rfemur -11.2171 -3.11967 17.7015
rtibia 49.496
rfoot -23.2143 -17.6709
rtoes -14.1317
lfemur -11.5397 6.87845 -17.3417
ltibia 50.0024
lfoot -26.2809 8.29625
ltoes -14.5227
70
root 8.05185 14.6565 2.49863 -7.512 -2.12364 2.3587
lowerback -1.93758 -0.0966245 -3.43017
upperback 3.48155 -0.0483922 1.55561
thorax 4.69513 -0.179228 3.53565
lowerneck -11.8529 -1.70455 -1.05075
upperneck 11.3596 -1.96736 -1.11338
head 5.36641 -1.08666 -0.335487
rclavicle -8.95773e-015 -6.36111e-015
rhumerus 48.0379 -4.34587 -71.1417
rradius 16.2588
rwrist 38.7935
rhand -20.8295 -20.1924
rfingers 7.12502
rthumb 5.53895 -50.1
lclavicle -8.95773e-015 -6.36111e-015
lhumerus 41.7057 -12.9759 40.7005
lradius 28.7858
lwrist 8.14596
lhand -26.2383 1.10647
lfingers 7.12502
lthumb 0.315565 31.086
rfemur -11.2853 -3.14126 17.7708
rtibia 49.5179
rfoot -22.9721 -17.6983
rtoes -14.5078
lfemur -11.6674 6.8479 -17.3134
ltibia 50.0444
lfoot -26.2632 8.35974
ltoes -14.553
71
root 8.056 14.6558 2.49739 -7.43543 -2.08287 2.32691
lowerback -1.93776 -0.145434 -3.4613
upperback 3.43987 -0.114858 1.60871
thorax 4.65804 -0.213052 3.60444
lowerneck -11.7365 -1.66265 -1.05461
upperneck 11.2882 -1.89779 -1.22337
head 5.32372 -1.06015 -0.362068
rclavicle 8.19987e-015 -3.97569e-015
rhumerus 47.8926 -3.6336 -70.2108
rradius 16.4236
rwrist 37.7224
rhand -20.936 -20.5105
rfingers 7.12502
rthumb 5.43617 -50.4207
lclavicle 8.19987e-015 -3.97569e-015
lhumerus 41.5669 -12.8794 40.768
lradius 28.7608
lwrist 8.15518
lhand -26.2862 1.06075
lfingers 7.12502
lthumb 0.269319 31.0403
rfemur -11.3561 -3.20833 17.7884
rtibia 49.5792
rfoot -22.748 -17.6919
rtoes -14.8127
lfemur -11.8025 6.80384 -17.3275
ltibia 50.101
lfoot -26.257 8.45785
ltoes -14.8
72
root 8.05973 14.6537 2.49628 -7.41145 -2.08636 2.30587
lowerback -1.90001 -0.146196 -3.4649
upperback 3.4216 -0.117798 1.62804
thorax 4.61783 -0.213872 3.62626
lowerneck -11.6598 -1.61091 -1.03294
upperneck 11.247 -1.82458 -1.28841
head 5.29729 -1.02769 -0.379085
rclavicle -2.85753e-016 -1.03368e-014
rhumerus 47.8887 -3.59651 -70.0838
rradius 16.4251
rwrist 37.7147
rhand -20.8984 -20.5319
rfingers 7.12502
rthumb 5.47248 -50.4413
lclavicle -2.85753e-016 -1.03368e-014
lhumerus 41.5298 -12.863 40.7662
lradius 28.763
lwrist 8.20865
lhand -26.2593 1.08133
lfingers 7.12502
lthumb 0.29526 31.0609
rfemur -11.4235 -3.16982 17.798
rtibia 49.6336
rfoot -22.7779 -17.6438
rtoes -14.6638
lfemur -11.8549 6.79264 -17.3354
ltibia 50.1499
lfoot -26.2986 8.51705
ltoes -15.0422
73
root 8.06353 14.6522 2.49562 -7.42573 -2.08831 2.24067
lowerback -1.84866 -0.130397 -3.41378
upperback 3.45212 -0.100685 1.63966
thorax 4.61862 -0.204295 3.61051
lowerneck -11.6705 -1.57471 -1.00415
upperneck 11.2173 -1.78461 -1.25959
head 5.28986 -1.00471 -0.371493
rclavicle -7.69048e-015 -6.36111e-015
rhumerus 48.1558 -4.54919 -71.3977
rradius 16.1775
rwrist 39.3289
rhand -20.9776 -20.3871
rfingers 7.12502
rthumb 5.39598 -50.2984
lclavicle -7.69048e-015 -6.36111e-015
lhumerus 41.5671 -12.8095 40.7768
lradius 28.7786
lwrist 8.1424
lhand -26.2089 1.16459
lfingers 7.12502
lthumb 0.343942 31.1441
rfemur -11.4317 -3.13804 17.8632
rtibia 49.6623
rfoot -22.7799 -17.6406
rtoes -14.6515
lfemur -11.8539 6.78351 -17.2805
ltibia 50.1841
lfoot -26.3154 8.50717
ltoes -15.1069
74
root 8.06742 14.6536 2.49697 -7.42778 -2.04726 2.1868
lowerback -1.88702 -0.1281 -3.40788
upperback 3.5203 -0.0973802 1.66436
thorax 4.71168 -0.206057 3.63362
lowerneck -11.7166 -1.58991 -0.955541
upperneck 11.1557 -1.81127 -1.27496
head 5.27765 -1.01647 -0.386299
rclavicle -5.08143e-015 -5.56597e-015
rhumerus 48.3001 -4.90518 -71.8136
rradius 16.1086
rwrist 39.7684
rhand -21.2054 -20.6459
rfingers 7.12502
rthumb 5.17598 -50.5627
lclavicle -5.08143e-015 -5.56597e-015
lhumerus 41.6263 -12.7636 40.7439
lradius 28.7935
lwrist 8.14036
lhand -26.2876 1.21918
lfingers 7.12502
lthumb 0.267952 31.1988
rfemur -11.4013 -3.18919 17.9062
rtibia 49.6685
rfoot -22.7622 -17.6937
rtoes -14.7746
lfemur -11.8603 6.73906 -17.2422
ltibia 50.2029
lfoot -26.3188 8.48453
ltoes -14.917
75
root 8.07294 14.6544 2.49665 -7.40675 -2.07385 2.18549
lowerback -1.96208 -0.101386 -3.40985
upperback 3.56432 -0.0591493 1.66711
thorax 4.79723 -0.189703 3.64044
lowerneck -11.6709 -1.62115 -0.907246
upperneck 11.0905 -1.85492 -1.33642
head 5.24845 -1.03961 -0.415879
rclavicle 1.55301e-015 1.59028e-015
rhumerus 48.3102 -4.90829 -71.6252
rradius 16.156
rwrist 39.5567
rhand -20.9262 -20.4715
rfingers 7.12502
rthumb 5.44558 -50.3815
lclavicle 1.55301e-015 1.59028e-015
lhumerus 41.6724 -12.7749 40.6991
lradius 28.8047
lwrist 8.23434
lhand -26.4421 1.20555
lfingers 7.12502
lthumb 0.118726 31.1853
rfemur -11.4323 -3.20212 17.8838
rtibia 49.6708
rfoot -22.7239 -17.6918
rtoes -14.7822
lfemur -11.8782 6.7367 -17.2692
ltibia 50.2115
lfoot -26.3274 8.52401
ltoes -14.7927
76
root 8.07958 14.6541 2.49348 -7.37599 -2.18274 2.18858
lowerback -1.95185 -0.0539748 -3.35925
upperback 3.55087 0.00266357 1.64589
thorax 4.77132 -0.155838 3.59331
lowerneck -11.6155 -1.62857 -0.872168
upperneck 11.1047 -1.86742 -1.36855
head 5.24288 -1.04644 -0.432134
rclavicle -1.07219e-014 -7.15625e-015
rhumerus 48.2897 -5.06937 -71.6916
rradius 16.1757
rwrist 39.8002
rhand -20.4003 -19.8348
rfingers 7.12502
rthumb 5.95336 -49.7312
lclavicle -1.07219e-014 -7.15625e-015
lhumerus 41.6857 -12.8631 40.585
lradius 28.8142
lwrist 8.39046
lhand -26.6561 1.21914
lfingers 7.12502
lthumb -0.0879109 31.1989
rfemur -11.5138 -3.16986 17.8648
rtibia 49.6722
rfoot -22.6898 -17.6645
rtoes -14.7754
lfemur -11.9219 6.82925 -17.2959
ltibia 50.2101
lfoot -26.3043 8.58132
ltoes -15.0133
77
root 8.08516 14.6555 2.49214 -7.35675 -2.26675 2.15665
lowerback -1.82571 -0.0253718 -3.28793
upperback 3.48631 0.0341221 1.64089
thorax 4.62857 -0.133433 3.5486
lowerneck -11.6897 -1.6241 -0.932528
upperneck 11.2255 -1.85906 -1.29084
head 5.29443 -1.04028 -0.398983
rclavicle 5.71506e-016 7.95139e-015
rhumerus 48.2507 -5.46082 -72.2492
rradius 16.12
rwrist 40.6186
rhand -20.3926 -19.7363
rfingers 7.12502
rthumb 5.96079 -49.6324
lclavicle 5.71506e-016 7.95139e-015
lhumerus 41.619 -12.9097 40.5447
lradius 28.7909
lwrist 8.43384
lhand -26.742 1.12211
lfingers 7.12502
lthumb -0.170889 31.1018
rfemur -11.5422 -3.13752 17.8915
rtibia 49.67
rfoot -22.6965 -17.6803
rtoes -14.9646
lfemur -11.9541 6.93334 -17.2686
ltibia 50.1939
lfoot -26.2786 8.58053
ltoes -15.1276
